<?xml version="1.0" encoding="UTF-8"?>
<svg id="Capa_1" xmlns="http://www.w3.org/2000/svg" version="1.1" viewBox="0 0 1393.6 995">
  <!-- Generator: Adobe Illustrator 29.5.0, SVG Export Plug-In . SVG Version: 2.1.0 Build 137)  -->
  <defs>
    <style>
      .st0, path {
        fill: #ffffff;
      }
    </style>
  </defs>
  <path d="M1393.6,28.9c-.3,6.9-1.8,13.6-4.9,20.1-16.8,35.2-37.4,67.9-61.6,98.4-21,26.4-42.3,52.6-67.7,74.9-40,35-81.7,68-129,92.8-36.6,19.2-74.2,36.6-113.9,48.6-19.9,6-40.6,9.7-61.1,13.7-22.2,4.3-44.5,8-66.7,11.7-8.5,1.4-14.4,5.7-18,13.6-21.8,47.7-43.6,95.3-65.6,142.9-3.9,8.5-3.2,16.4,1.7,24.3,9.4,15,18.5,30.2,27.6,45.3,2,3.3,3.7,6.7,5.2,10.3,2.8,6.7,1.7,13-3,18.5-2.4,2.7-4.9,5.4-7.7,7.6-8.7,6.9-17.6,13.5-26.2,20.4-3.6,2.9-7.2,6-10.4,9.5-4.6,5-6.8,11.2-7.6,18-2.6,22.9-5.2,45.7-7.9,68.6-1.3,11.2-7.1,19.1-17.8,22.9-15.5,5.4-30.9,11-46.6,15.7-11.5,3.4-20.1,9.8-26.4,19.8-11.7,18.5-23.8,36.9-35.1,55.7-5.6,9.3-13.3,14.7-23.7,16.6-34.4,6.3-68.7,12.7-103.1,19-19.1,3.5-38.2,6.6-57.3,10-11.1,2-21.2,6.5-30.4,12.8-19.7,13.5-39.2,27.2-58.8,40.9-3.1,2.2-6.3,4.4-9.5,6.4-1.7,1-3.9,2.9-5.7.8-.9-1.1-.8-3.6-.4-5.2,5.1-22.4,10.3-44.8,15.7-67.2,20.6-84.9,41.1-169.8,61.8-254.6,24.3-99.5,48.8-199,73.3-298.5,16.8-68.5,33.8-136.9,50.7-205.3.8-3.1,1.6-6.2,2.6-9.2,2.1-5.6,4.3-7.1,10.1-6.4,3.6.4,7.1,1.2,10.6,2.2,47.6,13.2,95.1,26.7,142.8,39.7,15.4,4.2,31,7.7,46.6,10.9,15.6,3.2,31.4,3,47.2,2.4,29.6-1.1,59.2-3.1,88.8-3.8,69.1-1.4,135.5-16.2,200.6-38.7,32.2-11.1,62.9-25.1,91.7-43.2,27.6-17.4,55.2-34.7,82.4-52.6,9.4-6.2,18-13.6,26.4-21.1,12.7-11.4,25.6-22.5,39.2-32.8,12.5-9.4,29.2-3.6,36.2,6.3,3.1,4.4,4.7,10.2,4.7,17.9h0Z"/>
  <path class="st0" d="M325.2,995c-7.9-6.3-15-11.4-21.4-17.3-26.4-24.7-55.1-46.4-84.8-66.8-19.7-13.6-39.4-27-59.1-40.5-3.3-2.3-6.5-4.8-9.5-7.5-6.2-5.7-8.1-12.9-6-21,2.5-9.8,6.8-19,13.1-26.8,12.8-15.9,15.9-33.6,11.1-52.9-4-16.1-8.4-32.1-12.3-48.3-2.2-9.3-3.9-18.8-5.7-28.2-1.9-10.1-.7-20,2.9-29.6,5.3-13.9,10.3-28,16.7-41.5,7.5-15.7,11.3-32,11.7-49.3.5-21.7,1-43.5,1.8-65.2.7-18.5,1.2-37.1,2.9-55.6.9-9.6,3.8-19.2,6.5-28.6,4.5-15.8,9.4-31.4,14.1-47.1.4-1.4.5-2.8.9-5-6-.6-11.6-1.6-17.3-1.7-30.5-.6-61-1-91.5-1.4-17.5-.3-35-.7-52.4-.9-5.1,0-9.7-1.4-13.9-4.2-9.3-6.1-18.5-12.3-27.7-18.4-4.5-3-5.7-7.2-4.9-12.2,1.5-9.5,3-18.9,4.6-28.4,5.8-35.5,11.6-71,17.5-106.6.7-4.4,1.5-8.8,2.3-13.2,1.1-5.9,4.6-9.3,10.5-10.5,8.6-1.7,17.1-3.6,25.5-5.7,10.8-2.7,21.1-6.9,30.8-12.3,5.5-3.1,11.4-4.8,17.7-4.9,12.4-.3,24.7-.7,37.1-.7,76.1-.1,152.3-.4,228.4-.1,49.2.2,98.5,1.2,147.7,1.9,1.5,0,3,0,4.5.3,3.9.7,5.6,2.7,5.4,6.6-.1,2.3-.7,4.6-1.2,6.9-31.7,129.7-63.5,259.5-95.2,389.2-30.5,125-61,250-91.5,375-4.8,19.4-9.4,38.9-14.3,58.3-1.1,4.5-2.9,8.8-4.8,14.3h0Z"/>
</svg>